<?xml version="1.0" standalone="no"?>
<!DOCTYPE svg PUBLIC "-//W3C//DTD SVG 20010904//EN"
 "http://www.w3.org/TR/2001/REC-SVG-20010904/DTD/svg10.dtd">
<svg version="1.0" xmlns="http://www.w3.org/2000/svg"
 width="225.000000pt" height="225.000000pt" viewBox="0 0 225.000000 225.000000"
 preserveAspectRatio="xMidYMid meet">

<g transform="translate(0.000000,225.000000) scale(0.100000,-0.100000)"
fill="#000000" stroke="none">
<path d="M786 1706 l-309 -174 -4 -389 -5 -390 30 -12 c16 -7 47 -11 68 -9
l39 3 -28 16 -28 15 247 115 c136 63 251 115 256 117 4 2 8 -42 8 -97 l0 -101
28 6 c15 4 30 9 34 13 4 3 8 45 10 93 l3 87 41 -18 c73 -33 80 -34 92 -6 13
27 17 24 -101 72 -35 14 -38 19 -35 50 3 33 10 38 283 201 l280 168 3 -319 c1
-176 0 -322 -2 -324 -2 -3 -14 1 -27 7 -19 11 -25 10 -36 -6 -18 -25 -16 -33
12 -46 25 -11 25 -11 -26 -42 -33 -20 -61 -47 -77 -75 l-26 -45 44 27 c25 15
78 46 117 70 l73 42 -3 388 -2 388 -235 125 c-129 69 -276 147 -326 174 l-90
49 -308 -173z m274 -201 c0 -162 -2 -295 -4 -295 -10 0 -501 301 -499 307 2 6
484 281 496 282 4 1 7 -132 7 -294z m194 236 c61 -32 180 -93 264 -136 85 -42
152 -78 150 -80 -8 -7 -524 -318 -535 -322 -10 -4 -13 57 -13 296 0 221 3 301
12 301 6 0 61 -26 122 -59z m-426 -456 l232 -140 0 -40 0 -41 -261 -119 c-143
-66 -265 -121 -270 -123 -5 -2 -9 130 -9 323 l0 326 38 -23 c20 -13 142 -86
270 -163z"/>
<path d="M890 1576 c-158 -55 -220 -79 -220 -86 0 -3 21 -18 46 -34 l47 -30
91 33 c50 18 108 38 129 43 37 10 37 11 37 64 0 30 -1 54 -2 54 -2 0 -59 -20
-128 -44z"/>
<path d="M1193 1663 c-8 -3 -13 -24 -13 -55 0 -42 2 -49 18 -44 9 3 46 10 82
16 100 18 100 18 35 55 -56 32 -92 41 -122 28z"/>
<path d="M1505 1704 c56 -44 135 -74 192 -74 266 0 453 -82 453 -198 0 -39
-38 -118 -80 -165 l-29 -34 35 -34 36 -34 38 44 c127 146 128 312 3 407 -99
76 -232 104 -481 104 -171 -1 -185 -2 -167 -16z"/>
<path d="M338 1298 c-120 -80 -253 -212 -298 -298 -29 -55 -35 -75 -34 -130 0
-140 86 -219 289 -270 167 -41 470 -29 737 30 104 23 313 83 366 106 19 8 37
14 39 14 3 0 -7 -21 -22 -46 -15 -25 -25 -47 -23 -49 1 -1 21 -12 44 -23 l41
-21 67 121 c37 66 66 121 64 123 -14 12 -250 137 -252 134 -9 -10 -36 -69 -36
-79 0 -5 20 -20 45 -32 25 -12 45 -25 45 -29 0 -10 -246 -87 -365 -114 -204
-45 -304 -58 -475 -59 -189 -1 -268 12 -363 58 -115 57 -136 137 -64 248 40
63 163 179 240 228 l56 35 1 58 c0 31 -2 57 -4 57 -3 0 -47 -28 -98 -62z"/>
<path d="M1088 599 c-25 -10 -27 -15 -30 -75 l-3 -64 -80 49 c-68 41 -86 48
-118 44 l-38 -5 146 -88 147 -88 160 96 c143 86 158 97 142 109 -10 7 -24 13
-32 13 -8 0 -65 -29 -127 -65 -61 -36 -115 -65 -118 -65 -4 0 -7 34 -7 75 0
41 -3 75 -7 74 -5 0 -20 -5 -35 -10z"/>
</g>
</svg>
